<?xml version="1.0" encoding="utf-8"?>
<!-- Generator: Adobe Illustrator 16.0.3, SVG Export Plug-In . SVG Version: 6.00 Build 0)  -->
<!DOCTYPE svg PUBLIC "-//W3C//DTD SVG 1.1//EN" "http://www.w3.org/Graphics/SVG/1.1/DTD/svg11.dtd">
<svg version="1.1" id="Capa_1" xmlns="http://www.w3.org/2000/svg" xmlns:xlink="http://www.w3.org/1999/xlink" x="0px" y="0px"
	 width="300px" height="300px" viewBox="0 0 300 300" enable-background="new 0 0 300 300" xml:space="preserve">
<g>
	<path fill-rule="evenodd" clip-rule="evenodd" fill="#9DCBAC" d="M1.948,202.132c0-24.631-0.008-49.253,0-73.881
		c0.012-17.416,7.077-27.837,23.402-34.136c3.638-1.405,4.578-3.841,4.569-7.402c-0.072-23.176-0.048-46.355-0.036-69.534
		c0.004-7.012,1.056-8.048,8.033-8.053C45.16,9.12,52.408,9.104,59.647,9.13c5.692,0.02,7.171,1.453,7.183,7.231
		c0.037,23.03,0.008,46.064,0.02,69.096c0,6.82,0.186,6.86,6.555,9.394c12.599,5.005,19.643,14.287,20.892,27.841
		c0.186,2.021,0.255,4.054,0.255,6.08c0.016,49.977,0.016,99.952,0.012,149.929c0,7.906-0.77,8.648-8.734,8.648
		c-25.352,0.003-50.703,0.008-76.054,0c-6.611,0-7.826-1.219-7.826-7.867C1.944,253.701,1.948,227.912,1.948,202.132z
		 M11.589,162.325c-0.17,1.054-0.381,1.743-0.389,2.439c-0.02,19.696,0.024,39.397-0.072,59.097
		c-0.016,3.192,1.644,3.402,4.107,3.395c22.017-0.044,44.035-0.021,66.052-0.036c1.256-0.004,2.511-0.19,3.897-0.3
		c0-21.677,0-43.019,0-64.595C60.586,162.325,36.313,162.325,11.589,162.325z M85.484,152.677c0-9.117,0.041-17.648-0.004-26.178
		c-0.077-11.875-5.627-19.736-16.707-23.747c-8.301-3.01-11.112-7.002-11.128-15.985c-0.02-14.924,0-29.85-0.012-44.774
		c0-1.542-0.134-3.085-0.219-5.094c-4.986,0-9.601,0.216-14.187-0.069c-3.553-0.219-4.383,1.183-4.355,4.491
		c0.138,15.357,0.098,30.719,0.041,46.078c-0.036,8.379-2.981,12.427-10.849,15.279c-11.25,4.083-16.678,11.596-16.869,23.619
		c-0.117,7.097,0.207,14.211-0.117,21.299c-0.187,4.109,0.948,5.446,5.229,5.397c21.442-0.211,42.889-0.093,64.334-0.105
		C82.062,152.887,83.479,152.77,85.484,152.677z M85.493,236.606c-1.07-0.195-1.613-0.391-2.164-0.391
		c-22.994-0.019-45.991,0.009-68.989-0.073c-2.556-0.008-3.204,1.063-3.192,3.372c0.061,11.711,0.077,23.428-0.012,35.146
		c-0.024,2.654,0.985,3.51,3.569,3.501c22.414-0.06,44.837-0.081,67.255,0.017c2.99,0.012,3.626-1.224,3.573-3.895
		c-0.134-6.647-0.041-13.303-0.041-19.958C85.493,248.442,85.493,242.561,85.493,236.606z M57.317,27.398
		c0.871-9.054,0.871-9.054-7.523-9.054c-1.154-0.001-2.305-0.001-3.455,0c-7.993,0-7.993,0-7.187,8.167
		c0.024,0.239,0.288,0.458,0.571,0.887C45.428,27.398,51.252,27.398,57.317,27.398z"/>
	<path fill-rule="evenodd" clip-rule="evenodd" fill="#9DCBAC" d="M204.435,189.541c0-29.84-0.389-59.685,0.143-89.51
		c0.323-17.964,8.726-32.503,22.831-43.486c3.375-2.633,4.655-5.252,4.546-9.417c-0.259-10.279-0.117-20.566-0.065-30.851
		c0.025-5.718,1.511-7.134,7.265-7.147c7.526-0.022,15.062-0.026,22.592,0.001c5.745,0.021,7.062,1.352,7.082,7.26
		c0.027,10.718,0.101,21.438-0.049,32.155c-0.04,3.026,0.805,5.086,3.317,6.96c16.305,12.193,24.528,28.746,24.599,48.943
		c0.202,58.662,0.076,117.33,0.064,175.993c0,5.396-1.543,6.895-7.032,6.899c-26.077,0.016-52.149,0.016-78.223,0.003
		c-6.113-0.003-7.332-1.194-7.336-7.421c-0.024-30.128-0.016-60.255-0.016-90.383C204.249,189.541,204.347,189.541,204.435,189.541z
		 M213.229,278.129c2.168,0,3.72,0,5.275,0c21.292,0,42.588-0.114,63.884,0.101c4.326,0.045,5.251-1.373,5.247-5.44
		c-0.121-55.482-0.072-110.974-0.113-166.457c-0.005-3.611-0.086-7.281-0.709-10.825c-2.362-13.573-8.975-24.703-20.207-32.767
		c-4.971-3.569-7.284-7.975-6.858-14.028c0.203-2.883,0.173-5.803-0.053-8.686c-0.081-1.046-1-2.879-1.6-2.902
		c-5.567-0.225-11.153-0.133-17.022-0.133c0,4.873-0.062,9.06,0.017,13.247c0.084,4.857-1.73,8.657-5.714,11.529
		c-15.405,11.112-22.256,26.312-22.203,45.188c0.15,55.198,0.057,110.397,0.057,165.592
		C213.229,274.118,213.229,275.689,213.229,278.129z M241.437,27.246c6.198,0,12.138,0,18.02,0c0.937-8.902,0.937-8.902-7.591-8.902
		c-1.005-0.001-2.015-0.001-3.022,0C240.416,18.344,240.416,18.344,241.437,27.246z"/>
	<path fill-rule="evenodd" clip-rule="evenodd" fill="#9DCBAC" d="M190.978,215.857c0,21.154,0.013,42.309,0,63.463
		c-0.004,6.987-1.054,8.029-8.057,8.029c-22.606,0.003-45.21,0.008-67.811-0.005c-6.101-0.003-7.365-1.251-7.365-7.409
		c-0.017-41.15,0.004-82.301-0.017-123.45c-0.004-15.448,3.938-29.78,12.133-42.881c7.673-12.258,11.193-25.605,11.124-40.022
		c-0.081-19.123-0.024-38.25-0.012-57.375c0.012-5.799,1.317-7.064,7.207-7.078c7.535-0.021,15.07-0.028,22.605,0.001
		c5.602,0.021,6.947,1.331,6.951,6.893c0.021,19.127,0.095,38.252-0.012,57.375c-0.081,14.418,3.383,27.784,11.048,40.044
		c8.441,13.504,12.322,28.258,12.233,44.167C190.896,177.026,190.978,196.444,190.978,215.857z M148.997,278.129
		c9.126,0,18.258-0.203,27.373,0.09c4.232,0.142,5.694-0.848,5.676-5.446c-0.199-38.24-0.179-76.475-0.082-114.716
		c0.04-14.422-3.403-27.762-11.047-40.027c-8.415-13.506-12.404-28.223-12.154-44.16c0.179-11.004-0.047-22.018,0.09-33.022
		c0.041-2.992-0.822-4.193-3.925-3.999c-3.602,0.223-7.252,0.237-10.854-0.004c-3.228-0.221-4.285,0.867-4.225,4.15
		c0.19,9.992-0.207,19.996,0.129,29.979c0.599,17.78-3.861,34.026-13.299,49.088c-6.438,10.271-9.739,21.688-9.783,33.796
		c-0.159,40.122-0.065,80.242-0.163,120.365c-0.004,3.054,1.021,4.002,4.019,3.953C130.164,278.036,139.582,278.129,148.997,278.129
		z M158.33,27.398c1.272-9.054,1.272-9.054-6.959-9.054c-1.305-0.001-2.602-0.001-3.905,0c-8.066,0-8.07,0-7.386,8.09
		c0.029,0.253,0.28,0.486,0.571,0.964C146.384,27.398,152.254,27.398,158.33,27.398z"/>
	<path fill-rule="evenodd" clip-rule="evenodd" fill="#145550" d="M11.589,162.325c24.724,0,48.997,0,73.595,0
		c0,21.576,0,42.918,0,64.595c-1.386,0.109-2.641,0.296-3.897,0.3c-22.018,0.016-44.035-0.008-66.052,0.036
		c-2.463,0.008-4.124-0.202-4.107-3.395c0.097-19.699,0.052-39.4,0.072-59.097C11.208,164.068,11.419,163.379,11.589,162.325z"/>
	<path fill-rule="evenodd" clip-rule="evenodd" fill="#145550" d="M85.484,152.677c-2.005,0.093-3.423,0.21-4.841,0.21
		c-21.445,0.013-42.892-0.105-64.334,0.105c-4.281,0.049-5.416-1.288-5.229-5.397c0.324-7.088,0-14.202,0.117-21.299
		c0.191-12.023,5.619-19.536,16.869-23.619c7.867-2.852,10.813-6.899,10.849-15.279c0.057-15.359,0.098-30.721-0.041-46.078
		c-0.028-3.308,0.802-4.71,4.355-4.491c4.585,0.286,9.2,0.069,14.187,0.069c0.085,2.009,0.219,3.552,0.219,5.094
		c0.012,14.924-0.008,29.85,0.012,44.774c0.017,8.983,2.828,12.976,11.128,15.985c11.08,4.011,16.629,11.872,16.707,23.747
		C85.525,135.029,85.484,143.56,85.484,152.677z"/>
	<path fill-rule="evenodd" clip-rule="evenodd" fill="#145550" d="M85.493,236.606c0,5.954,0,11.836,0,17.719
		c0,6.655-0.093,13.311,0.041,19.958c0.053,2.671-0.583,3.906-3.573,3.895c-22.418-0.098-44.841-0.076-67.255-0.017
		c-2.584,0.009-3.593-0.847-3.569-3.501c0.089-11.718,0.072-23.435,0.012-35.146c-0.012-2.31,0.636-3.38,3.192-3.372
		c22.998,0.082,45.995,0.055,68.989,0.073C83.88,236.216,84.423,236.411,85.493,236.606z"/>
	<path fill-rule="evenodd" clip-rule="evenodd" fill="#0E2A27" d="M57.317,27.398c-6.065,0-11.889,0-17.594,0
		c-0.283-0.43-0.547-0.648-0.571-0.887c-0.806-8.167-0.806-8.167,7.187-8.167c1.15-0.001,2.301-0.001,3.455,0
		C58.188,18.344,58.188,18.344,57.317,27.398z"/>
	<path fill-rule="evenodd" clip-rule="evenodd" fill="#145550" d="M213.229,278.129c0-2.439,0-4.011,0-5.582
		c0-55.195,0.094-110.395-0.057-165.592c-0.053-18.876,6.798-34.076,22.203-45.188c3.983-2.873,5.798-6.672,5.714-11.529
		c-0.078-4.187-0.017-8.374-0.017-13.247c5.869,0,11.455-0.091,17.022,0.133c0.6,0.023,1.519,1.856,1.6,2.902
		c0.226,2.883,0.256,5.803,0.053,8.686c-0.426,6.054,1.888,10.459,6.858,14.028c11.232,8.063,17.845,19.193,20.207,32.767
		c0.623,3.543,0.704,7.213,0.709,10.825c0.041,55.483-0.008,110.974,0.113,166.457c0.004,4.067-0.921,5.485-5.247,5.44
		c-21.296-0.215-42.592-0.101-63.884-0.101C216.949,278.129,215.397,278.129,213.229,278.129z M222.737,194.313
		c0,19.417-0.016,38.833,0.004,58.246c0.009,5.619,1.225,6.835,6.939,6.846c13.911,0.032,27.822,0.041,41.73-0.006
		c5.266-0.018,6.817-1.497,6.821-6.694c0.038-38.687,0.038-77.374,0-116.058c-0.004-5.424-1.498-6.786-7.105-6.792
		c-13.766-0.021-27.527-0.021-41.293-0.004c-6.043,0.01-7.084,1.049-7.097,7.087C222.722,156.063,222.733,175.188,222.737,194.313z"
		/>
	<path fill-rule="evenodd" clip-rule="evenodd" fill="#0E2A27" d="M241.437,27.246c-1.021-8.902-1.021-8.902,7.406-8.902
		c1.008-0.001,2.018-0.001,3.022,0c8.527,0,8.527,0,7.591,8.902C253.574,27.246,247.635,27.246,241.437,27.246z"/>
	<path fill-rule="evenodd" clip-rule="evenodd" fill="#145550" d="M148.997,278.129c-9.415,0-18.833-0.093-28.245,0.049
		c-2.998,0.049-4.022-0.899-4.019-3.953c0.097-40.123,0.004-80.243,0.163-120.365c0.044-12.108,3.345-23.524,9.783-33.796
		c9.438-15.062,13.898-31.309,13.299-49.088c-0.336-9.983,0.061-19.988-0.129-29.979c-0.061-3.284,0.997-4.371,4.225-4.15
		c3.602,0.241,7.252,0.227,10.854,0.004c3.103-0.194,3.966,1.006,3.925,3.999c-0.137,11.004,0.089,22.018-0.09,33.022
		c-0.25,15.937,3.739,30.654,12.154,44.16c7.644,12.265,11.087,25.604,11.047,40.027c-0.097,38.241-0.117,76.476,0.082,114.716
		c0.019,4.599-1.443,5.588-5.676,5.446C167.255,277.926,158.123,278.129,148.997,278.129z M172.282,195.124
		c0.283-12.786-9.528-23.104-22.313-23.477c-12.874-0.372-23.375,9.735-23.545,22.678c-0.173,12.663,9.861,23.079,22.533,23.395
		C161.441,218.028,171.998,207.799,172.282,195.124z"/>
	<path fill-rule="evenodd" clip-rule="evenodd" fill="#0E2A27" d="M158.33,27.398c-6.076,0-11.946,0-17.679,0
		c-0.292-0.479-0.542-0.711-0.571-0.964c-0.684-8.09-0.68-8.09,7.386-8.09c1.304-0.001,2.601-0.001,3.905,0
		C159.603,18.344,159.603,18.344,158.33,27.398z"/>
	<path fill-rule="evenodd" clip-rule="evenodd" fill="#9DCBAC" d="M20.575,195.537c0-19.129-0.012-38.251,0.004-57.38
		c0.013-6.038,1.054-7.077,7.097-7.086c13.766-0.016,27.527-0.016,41.292,0.004c5.606,0.005,7.101,1.366,7.105,6.792
		c0.037,38.688,0.037,77.37,0,116.058c-0.004,5.198-1.555,6.68-6.821,6.696c-13.908,0.045-27.818,0.037-41.73,0.004
		c-5.716-0.012-6.931-1.226-6.939-6.842C20.563,234.361,20.579,214.95,20.575,195.537z M66.833,195.982
		c0-17.241-0.065-34.482,0.061-51.722c0.021-3.085-0.652-4.392-4.063-4.319c-9.702,0.212-19.417,0.183-29.119,0.012
		c-3.164-0.054-4.266,0.806-4.253,4.134c0.109,34.482,0.109,68.957,0,103.436c-0.013,3.369,1.204,4.165,4.298,4.116
		c9.564-0.15,19.129-0.175,28.685,0.011c3.354,0.065,4.5-0.897,4.469-4.391C66.741,230.165,66.833,213.077,66.833,195.982z"/>
	<path fill-rule="evenodd" clip-rule="evenodd" fill="#9DCBAC" d="M172.282,195.124c-0.284,12.675-10.841,22.904-23.326,22.596
		c-12.672-0.315-22.706-10.731-22.533-23.395c0.17-12.942,10.671-23.05,23.545-22.678
		C162.754,172.02,172.565,182.338,172.282,195.124z M149.183,208.476c7.656,0.089,13.915-5.897,14.109-13.486
		c0.195-7.771-6.016-14.247-13.756-14.353c-7.729-0.098-14.135,6.251-14.118,14.001
		C135.434,202.245,141.542,208.392,149.183,208.476z"/>
	<path fill-rule="evenodd" clip-rule="evenodd" fill="#0E2A27" d="M149.183,208.476c-7.641-0.084-13.75-6.23-13.766-13.838
		c-0.017-7.75,6.389-14.099,14.118-14.001c7.741,0.105,13.952,6.582,13.756,14.353C163.098,202.578,156.839,208.564,149.183,208.476
		z"/>
</g>
<rect x="219.383" y="122.763" fill="#145550" width="62.226" height="145.644"/>
<path fill="#0E2A27" d="M277.625,119.511c-0.049,0.044-0.081,0.077-0.114,0.087c-5.229,0.213-6.303,3.298-6.347,7.39
	c-0.073,5.608-0.008,11.231-0.008,16.842c0,7.729,0.008,15.458,0.04,23.188c-0.008,1.223,0.065,2.462,0.215,3.674
	c0.352,3.302,1.746,4.663,5.044,5.109c1.202,0.149,1.202,0.149,1.194,1.117c-0.53,0.013-1.086,0-1.628,0.013
	c-5.794,0-11.563,0.02-17.362-0.013c-0.373-0.008-0.75-0.283-1.123-0.445c0.359-0.191,0.697-0.502,1.077-0.551
	c4.089-0.685,5.109-1.727,5.592-5.871c0.084-0.668,0.084-1.349,0.084-2.033c-0.011-13.595-0.02-27.203-0.032-40.808
	c0.013-0.363,0-0.725-0.012-1.353c-1.871,1.278-3.577,2.417-5.271,3.557c-2.969,2.011-5.963,4.012-8.879,6.078
	c-0.434,0.3-0.811,1-0.811,1.513c-0.019,10.679,0.032,21.367,0.032,32.058c0.012,10.092,0.02,20.187-0.051,30.282
	c0,1.159-0.447,2.309-0.65,3.468c-0.109,0.574-0.189,1.171-0.149,1.745c0,0.235,0.32,0.458,0.502,0.686
	c0.225-0.195,0.563-0.353,0.628-0.575c0.276-1.021,0.417-2.09,0.701-3.088c0.45-1.645,1.397-2.952,3.047-3.475
	c0.582-0.18,1.534,0.024,2.024,0.417c0.978,0.809,0.945,2.086,0.493,3.152c-0.262,0.595-1.123,1.396-1.603,1.307
	c-0.68-0.097-1.268-0.915-2.077-1.571c-0.406,1.009-0.892,2.27-1.414,3.532c0.096,0.117,0.169,0.224,0.255,0.349
	c0.777-0.17,1.543-0.328,2.289-0.478c0.092,1.159-0.414,1.628-2.302,1.98c0.065,2.128,1.471,3.505,3.813,3.707
	c3.739,0.341,5.185-1.013,6.263-6.133c0.883,1.109,1.706,1.969,2.297,2.974c1.564,2.656,1.888,5.469,0.68,8.377
	c-1.086,2.649-3.597,3.896-6.396,3.213c-4.909-1.192-8.004-5.023-8.264-10.229c-0.033-0.632-0.009-1.248,0-1.862
	c-0.956-0.374-1.081,0.157-0.976,0.752c0.3,1.608,0.575,3.25,1.065,4.806c0.413,1.309,1.061,2.564,1.713,3.791
	c1.564,2.925,1.958,5.907,0.49,8.985c-1.43,2.99-2.876,5.979-4.477,9.269c-1.66-3.881-3.317-7.515-4.768-11.221
	c-0.968-2.447-0.252-4.861,0.972-7.049c1.39-2.5,2.524-5.081,2.808-7.932c0.076-0.617,0.574-1.775-0.863-1.507
	c-0.263,1.708-0.336,3.414-0.786,5.011c-1.15,4.176-4.132,6.461-8.239,7.304c-2.228,0.462-4.067-0.426-5.334-2.354
	c-2.343-3.565-1.087-9.621,2.6-12.039c0.159,1.947,0.394,3.981,2.212,4.982c1.105,0.619,2.544,0.838,3.845,0.831
	c2.374-0.021,3.716-1.419,3.905-3.676c-1.086-0.255-2.256-0.444-2.343-2.065c0.734,0.214,1.44,0.417,2.132,0.608
	c0.129-0.062,0.256-0.139,0.381-0.216c-0.457-1.296-0.915-2.616-1.373-3.925c-0.127,0.02-0.255,0.04-0.373,0.052
	c-0.073,0.13-0.157,0.256-0.197,0.381c-0.26,0.757-0.569,1.686-1.463,1.41c-0.689-0.202-1.395-0.916-1.715-1.588
	c-0.299-0.556-0.19-1.426,0.009-2.078c0.417-1.394,1.589-1.811,2.93-1.162c1.385,0.695,2.28,1.862,2.717,3.345
	c0.244,0.937,0.438,1.896,0.584,2.853c0.117,0.843,0.51,1.086,1.438,0.705c-0.033-0.705-0.055-1.434-0.117-2.184
	c-0.224-2.418-0.648-4.833-0.682-7.264c-0.116-6.417-0.085-12.826-0.085-19.246c0-12.928,0.013-25.852,0.085-38.787
	c0-1.044-0.299-1.661-1.202-2.236c-4.565-2.949-9.091-5.961-13.66-8.965c-0.236-0.15-0.479-0.289-0.961-0.586
	c0,0.671,0,1.108,0,1.544c0.014,13.009,0.014,26.024,0.058,39.032c0.008,1.584,0.202,3.212,0.563,4.76
	c0.595,2.597,2.365,4.107,4.976,4.619c0.327,0.076,0.667,0.097,0.976,0.213c0.17,0.077,0.308,0.313,0.445,0.467
	c-0.17,0.162-0.341,0.389-0.563,0.478c-0.17,0.09-0.417,0.025-0.615,0.025c-6.507,0.008-13,0.023-19.53-0.008
	c-0.393,0-0.786-0.309-1.203-0.495c0.372-0.211,0.717-0.53,1.103-0.604c3.904-0.778,5.716-3.002,6.056-7.56
	c0.041-0.668,0.041-1.354,0.041-2.021c-0.021-13.268-0.021-26.535-0.041-39.8c0.008-0.724-0.02-1.449-0.162-2.142
	c-0.584-2.927-2.361-4.449-5.354-4.578c-0.426-0.01-0.845,0-1.306,0c-0.292-0.692-0.323-1.15,0.611-1.15
	c5.206,0,10.396,0,15.589,0.042c0.458,0,0.96,0.31,1.366,0.576c4.621,3.267,9.247,6.516,13.838,9.817
	c0.776,0.553,1.313,0.605,2.098,0.05c4.854-3.362,9.731-6.694,14.637-9.995c0.489-0.333,1.155-0.533,1.737-0.543
	c3.897-0.053,7.783-0.033,11.672-0.043C277.341,118.532,278.001,118.5,277.625,119.511z"/>
<path fill="#9DCBAC" d="M283.377,119.198c-0.048,0.045-0.081,0.077-0.113,0.088c-5.229,0.212-6.302,3.297-6.348,7.389
	c-0.073,5.609-0.009,11.232-0.009,16.842c0,7.729,0.009,15.459,0.042,23.189c-0.009,1.227,0.063,2.459,0.213,3.674
	c0.354,3.297,1.746,4.662,5.045,5.111c1.203,0.146,1.203,0.146,1.195,1.118c-0.531,0.008-1.086,0-1.629,0.008
	c-5.792,0-11.562,0.025-17.363-0.008c-0.373-0.012-0.75-0.291-1.121-0.449c0.36-0.189,0.696-0.498,1.078-0.556
	c4.086-0.68,5.106-1.725,5.589-5.865c0.086-0.673,0.086-1.354,0.086-2.033c-0.013-13.595-0.021-27.203-0.031-40.809
	c0.011-0.362,0-0.725-0.014-1.353c-1.871,1.278-3.577,2.417-5.271,3.557c-2.97,2.012-5.963,4.013-8.879,6.079
	c-0.435,0.299-0.812,1-0.812,1.513c-0.02,10.679,0.032,21.368,0.032,32.059c0.014,10.094,0.021,20.186-0.052,30.276
	c0,1.163-0.446,2.31-0.649,3.477c-0.108,0.571-0.189,1.167-0.148,1.742c0,0.234,0.318,0.457,0.502,0.68
	c0.223-0.19,0.563-0.348,0.627-0.574c0.276-1.021,0.419-2.083,0.701-3.087c0.449-1.638,1.397-2.95,3.046-3.469
	c0.585-0.182,1.536,0.02,2.026,0.414c0.977,0.81,0.944,2.086,0.495,3.15c-0.264,0.596-1.127,1.395-1.606,1.313
	c-0.68-0.097-1.267-0.919-2.077-1.58c-0.404,1.013-0.891,2.269-1.413,3.532c0.097,0.122,0.17,0.228,0.255,0.356
	c0.777-0.17,1.544-0.331,2.288-0.478c0.095,1.158-0.412,1.628-2.3,1.977c0.065,2.131,1.471,3.5,3.811,3.702
	c3.74,0.344,5.187-1.009,6.264-6.129c0.883,1.106,1.706,1.973,2.297,2.969c1.564,2.666,1.889,5.474,0.681,8.379
	c-1.085,2.653-3.598,3.896-6.396,3.216c-4.911-1.19-8.006-5.023-8.264-10.232c-0.033-0.624-0.008-1.243,0-1.864
	c-0.957-0.372-1.083,0.162-0.978,0.762c0.301,1.605,0.576,3.244,1.066,4.796c0.412,1.313,1.061,2.569,1.713,3.793
	c1.563,2.925,1.956,5.91,0.489,8.984c-1.43,2.989-2.876,5.988-4.476,9.276c-1.661-3.889-3.318-7.518-4.768-11.224
	c-0.969-2.451-0.251-4.865,0.972-7.045c1.39-2.504,2.524-5.081,2.808-7.934c0.077-0.618,0.575-1.781-0.862-1.515
	c-0.265,1.719-0.336,3.42-0.787,5.016c-1.149,4.173-4.131,6.466-8.239,7.308c-2.229,0.454-4.067-0.429-5.335-2.356
	c-2.342-3.565-1.086-9.626,2.601-12.04c0.157,1.944,0.393,3.979,2.213,4.982c1.104,0.616,2.543,0.839,3.843,0.83
	c2.374-0.02,3.715-1.417,3.905-3.674c-1.085-0.255-2.257-0.446-2.341-2.066c0.733,0.211,1.438,0.414,2.132,0.607
	c0.129-0.064,0.254-0.138,0.38-0.21c-0.459-1.301-0.917-2.621-1.374-3.93c-0.125,0.02-0.255,0.041-0.373,0.049
	c-0.072,0.129-0.157,0.26-0.198,0.389c-0.26,0.753-0.566,1.678-1.463,1.401c-0.688-0.202-1.393-0.915-1.713-1.588
	c-0.299-0.551-0.19-1.426,0.008-2.074c0.417-1.394,1.589-1.807,2.93-1.158c1.386,0.688,2.28,1.864,2.719,3.342
	c0.241,0.937,0.436,1.896,0.582,2.856c0.118,0.838,0.512,1.086,1.438,0.7c-0.032-0.7-0.051-1.438-0.116-2.183
	c-0.223-2.414-0.649-4.833-0.681-7.26c-0.118-6.421-0.085-12.833-0.085-19.251c0-12.927,0.013-25.851,0.085-38.787
	c0-1.042-0.3-1.661-1.204-2.235c-4.565-2.95-9.09-5.962-13.66-8.966c-0.233-0.149-0.478-0.287-0.959-0.585c0,0.67,0,1.107,0,1.543
	c0.012,13.01,0.012,26.021,0.057,39.032c0.008,1.588,0.203,3.216,0.563,4.76c0.596,2.596,2.366,4.111,4.975,4.621
	c0.328,0.073,0.669,0.094,0.978,0.211c0.168,0.073,0.307,0.308,0.445,0.47c-0.171,0.159-0.34,0.382-0.563,0.479
	c-0.171,0.085-0.417,0.021-0.616,0.021c-6.505,0.012-12.999,0.02-19.529-0.013c-0.394,0-0.786-0.308-1.203-0.486
	c0.373-0.214,0.717-0.534,1.102-0.607c3.906-0.777,5.716-3.005,6.057-7.559c0.04-0.673,0.04-1.354,0.04-2.026
	c-0.021-13.263-0.021-26.529-0.04-39.795c0.009-0.723-0.021-1.448-0.162-2.141c-0.583-2.927-2.361-4.451-5.356-4.578
	c-0.425-0.01-0.842,0-1.304,0c-0.291-0.692-0.324-1.15,0.612-1.15c5.205,0,10.395,0,15.588,0.043c0.457,0,0.96,0.31,1.364,0.575
	c4.623,3.268,9.25,6.517,13.84,9.818c0.777,0.553,1.312,0.605,2.097,0.05c4.855-3.362,9.732-6.694,14.639-9.996
	c0.49-0.332,1.154-0.532,1.736-0.542c3.896-0.053,7.782-0.032,11.671-0.042C283.095,118.22,283.754,118.188,283.377,119.198z"/>
</svg>
