<?xml version="1.0" encoding="utf-8"?>
<!-- Generator: Adobe Illustrator 16.0.3, SVG Export Plug-In . SVG Version: 6.00 Build 0)  -->
<!DOCTYPE svg PUBLIC "-//W3C//DTD SVG 1.1//EN" "http://www.w3.org/Graphics/SVG/1.1/DTD/svg11.dtd">
<svg version="1.1" id="Capa_1" xmlns="http://www.w3.org/2000/svg" xmlns:xlink="http://www.w3.org/1999/xlink" x="0px" y="0px"
	 width="300px" height="300px" viewBox="0 0 300 300" enable-background="new 0 0 300 300" xml:space="preserve">
<g>
	<path fill-rule="evenodd" clip-rule="evenodd" fill="#9DCBAC" stroke="#0E2A27" stroke-width="2" stroke-miterlimit="10" d="
		M99.534,112.148c-7.867-4.024-15.519-6.974-22.033-11.541c-6.28-4.339-12.362-9.672-16.837-15.798
		c-11.233-15.303-4.124-37.824,13.742-45.042c4.719-1.895,10.006-2.653,15.104-3.338c2.562-0.353,3.383-1.136,4.331-3.501
		c2.228-5.639,4.15-11.675,7.759-16.385c11.496-15.14,32.952-16.024,46.17-2.382c10.114,10.403,14.247,23.622,17.207,37.363
		c0.332,1.616,0.649,3.249,1.091,5.315c3.717-6.785,6.613-13.499,10.773-19.31c4.025-5.612,8.761-11.133,14.282-15.266
		c15.98-11.865,37.554-5.792,45.538,12.523c1.915,4.395,2.996,9.312,3.619,14.094c0.442,3.627,1.12,5.36,5.179,6.226
		c17.218,3.672,28.099,18.163,26.745,34.864c-0.77,9.501-5.928,16.476-13.201,22.125c-7.66,5.901-16.403,9.438-25.644,11.883
		c-2.779,0.767-5.612,1.398-9.536,2.354c4.105,1.877,7.29,3.357,10.503,4.801c10.24,4.674,19.76,10.43,26.832,19.417
		c14.384,18.244,6.479,43.165-15.771,49.932c-2.598,0.804-5.431,1.787-8.039,1.561c-5.486-0.469-7.064,2.229-8.354,6.993
		c-3.537,12.776-11.657,21.312-24.858,24.235c-13.029,2.888-24.289-2.111-32.734-14.166c-0.831-1.237-1.67-2.508-3.275-4.728
		c-1.091,6.524-1.904,12.1-3.041,17.631c-4.512,22.396-11.991,43.525-26.292,61.807c-3.004,3.815-6.046,5.106-10.719,3.292
		c-4.783-1.92-9.799-3.292-14.771-4.936c-6.541-2.146-7.841-4.944-4.53-10.845c11.793-20.95,21.98-42.642,29.956-65.326
		c0.568-1.569,1.038-3.139,1.877-5.664c-1.479,0.955-2.229,1.279-2.761,1.84c-9.393,8.896-20.212,12.739-32.771,8.129
		c-13.291-4.899-20.14-15.167-21.313-28.883c-0.459-5.539-2.382-7.461-7.498-8.968c-16.583-4.846-25.823-17.875-24.686-33.611
		c0.713-9.699,5.865-16.8,13.272-22.583c8.789-6.821,18.975-10.358,29.595-12.921C95.889,112.987,97.405,112.635,99.534,112.148z
		 M158.391,114.377c-1.047,5.892-2.085,6.812-8.031,6.794c-1.523,0.027-3.05,0.072-4.593-0.073
		c-16.069-1.407-32.03-0.767-47.811,2.708c-10.845,2.364-21.312,5.766-29.333,14.022c-6.56,6.73-7.525,15.392-2.797,23.531
		c4.241,7.282,11.279,9.934,18.921,11.531c10.015,2.111,9.834,2.075,9.699,12.397c-0.117,8.905,2.003,16.981,10.042,22.34
		c9.05,6.028,19.237,4.071,28.107-5.72c7.616-8.4,12.865-18.335,15.717-29.197c3.374-12.813,5.991-25.841,8.364-38.862
		c1.499-8.183,2.553-9.861,9.438-9.608c0.567-5.73,1.858-6.912,7.76-6.993c1.533-0.055,3.05,0.099,4.601,0.063
		c11.875-0.253,23.803,0.063,35.613-0.993c13.155-1.172,25.96-4.366,36.976-12.315c6.712-4.828,10.998-11.036,9.52-19.886
		c-1.454-8.726-6.776-14.193-14.889-16.981c-3.437-1.164-7.109-1.769-10.682-2.437c-5.233-0.965-6.317-2.472-6.055-7.669
		c0.216-3.943,0.361-8.012-0.379-11.829c-3.302-17.36-20.708-23.342-34.043-11.829c-7.859,6.758-12.633,15.627-16.431,25.02
		c-6.353,15.681-9.772,32.103-11.559,48.895C165.889,113.519,164.625,114.368,158.391,114.377z M155.214,111.083
		c2.618-19.615,2.716-39.231-1.208-58.711c-2.066-10.242-5.161-20.203-11.992-28.439c-10.268-12.362-27.096-10.602-34.205,3.816
		c-2.031,4.132-2.734,8.986-3.637,13.57c-1.038,5.478-2.769,6.794-8.328,6.46c-3.781-0.252-7.715-0.315-11.378,0.415
		C66.7,51.659,60.718,69.57,72.736,82.996c6.705,7.461,15.312,12.045,24.47,15.727C115.757,106.247,135.174,109.911,155.214,111.083
		z M168.775,128.19c-2.634,17.07-2.59,33.963-0.289,50.799c1.77,12.794,4.827,25.282,13.138,35.657
		c10.223,12.696,27.285,10.955,34.422-3.662c2.031-4.105,2.771-8.951,3.636-13.553c1.038-5.702,2.924-6.831,8.646-6.677
		c5.224,0.127,10.771-0.126,15.699-1.733c12.46-4.06,16.962-18.28,9.688-29.161c-6.956-10.421-17.62-15.807-28.763-20.21
		C207.032,132.612,188.345,129.129,168.775,128.19z M120.946,282.246c9.229,4.737,9.798,4.62,14.752-2.968
		c1.568-2.428,2.977-4.953,4.349-7.498c11.729-22.196,16.097-46.26,17.585-70.975c0.118-1.831,0.2-3.671,0.189-5.484
		c0.036-1.624-0.071-3.214-0.126-4.847C150.874,223.273,136.862,253.004,120.946,282.246z"/>
	<path fill-rule="evenodd" clip-rule="evenodd" fill="#145550" d="M158.391,114.377c6.234-0.009,7.498-0.858,8.156-7.092
		c1.786-16.792,5.206-33.213,11.559-48.895c3.798-9.393,8.571-18.262,16.431-25.02c13.335-11.513,30.741-5.531,34.043,11.829
		c0.74,3.816,0.595,7.886,0.379,11.829c-0.263,5.197,0.821,6.704,6.055,7.669c3.572,0.668,7.245,1.272,10.682,2.437
		c8.112,2.788,13.435,8.256,14.889,16.981c1.479,8.851-2.808,15.059-9.52,19.886c-11.016,7.949-23.82,11.143-36.976,12.315
		c-11.811,1.056-23.738,0.74-35.613,0.993c-1.551,0.035-3.067-0.118-4.601-0.063c-5.901,0.082-7.192,1.263-7.76,6.993
		c-6.886-0.253-7.939,1.425-9.438,9.608c-2.373,13.021-4.99,26.049-8.364,38.862c-2.853,10.862-8.102,20.797-15.717,29.197
		c-8.87,9.791-19.057,11.748-28.107,5.72c-8.039-5.358-10.159-13.435-10.042-22.34c0.136-10.322,0.316-10.286-9.699-12.397
		c-7.643-1.598-14.681-4.249-18.921-11.531c-4.728-8.139-3.763-16.8,2.797-23.531c8.021-8.256,18.488-11.658,29.333-14.022
		c15.781-3.474,31.742-4.114,47.811-2.708c1.543,0.146,3.069,0.1,4.593,0.073C156.306,121.189,157.344,120.269,158.391,114.377z"/>
	<path fill-rule="evenodd" clip-rule="evenodd" fill="#145550" d="M155.214,111.083c-20.04-1.172-39.457-4.836-58.007-12.361
		c-9.158-3.682-17.766-8.266-24.47-15.727C60.718,69.57,66.7,51.659,84.466,48.194c3.663-0.73,7.597-0.667,11.378-0.415
		c5.559,0.333,7.29-0.983,8.328-6.46c0.903-4.583,1.606-9.438,3.637-13.57c7.109-14.418,23.937-16.179,34.205-3.816
		c6.831,8.237,9.926,18.198,11.992,28.439C157.93,71.852,157.832,91.468,155.214,111.083z"/>
	<path fill-rule="evenodd" clip-rule="evenodd" fill="#145550" d="M168.775,128.19c19.569,0.938,38.257,4.422,56.177,11.459
		c11.143,4.403,21.807,9.79,28.763,20.21c7.273,10.881,2.771,25.102-9.688,29.161c-4.928,1.607-10.476,1.86-15.699,1.733
		c-5.722-0.154-7.607,0.975-8.646,6.677c-0.865,4.602-1.604,9.447-3.636,13.553c-7.137,14.617-24.199,16.358-34.422,3.662
		c-8.311-10.375-11.368-22.863-13.138-35.657C166.186,162.153,166.142,145.261,168.775,128.19z"/>
	<path fill-rule="evenodd" clip-rule="evenodd" fill="#145550" d="M120.946,282.246c15.917-29.242,29.928-58.973,36.75-91.771
		c0.055,1.633,0.162,3.223,0.126,4.847c0.011,1.813-0.071,3.653-0.189,5.484c-1.488,24.715-5.855,48.778-17.585,70.975
		c-1.372,2.545-2.78,5.07-4.349,7.498C130.744,286.866,130.175,286.983,120.946,282.246z"/>
</g>
</svg>
