<?xml version="1.0" encoding="utf-8"?>
<!-- Generator: Adobe Illustrator 16.0.3, SVG Export Plug-In . SVG Version: 6.00 Build 0)  -->
<!DOCTYPE svg PUBLIC "-//W3C//DTD SVG 1.1//EN" "http://www.w3.org/Graphics/SVG/1.1/DTD/svg11.dtd">
<svg version="1.1" id="Capa_1" xmlns="http://www.w3.org/2000/svg" xmlns:xlink="http://www.w3.org/1999/xlink" x="0px" y="0px"
	 width="1000px" height="500px" viewBox="0 0 1000 500" enable-background="new 0 0 1000 500" xml:space="preserve">
<g>
	<path fill-rule="evenodd" clip-rule="evenodd" fill="#FFFFFF" d="M989.065,313.382c-26.624,0-53.244,0-80.22,0
		c0-1.937,0-3.64,0-5.561c2.92-0.376,5.852-0.61,8.734-1.148c10.866-2.021,16.365-7.69,16.851-18.823
		c0.603-13.882,0.514-27.793,0.562-41.693c0.158-47.5,0.243-94.999,0.356-142.499c0.004-1.286,0.004-2.572,0.865-4.219
		c1.06,1.727,2.123,3.453,3.183,5.18c5.997,9.768,12.354,19.182,22.111,25.789c1.192,0.807,1.71,3.322,1.718,5.048
		c0.113,22.178,0.073,44.354,0.073,66.532c0,26.151,0,52.3,0.004,78.45c0,1.654-0.028,3.312,0.028,4.966
		c0.461,13.801,6.854,20.578,20.546,21.921c1.747,0.17,3.458,0.716,5.188,1.088C989.065,310.07,989.065,311.724,989.065,313.382z"/>
	<path fill-rule="evenodd" clip-rule="evenodd" fill="#FFFFFF" d="M505.848,88.951c-0.348,0.216-0.485,0.376-0.631,0.382
		c-20.698,0.801-24.687,13.266-24.753,27.989c-0.245,54.323-0.107,108.647-0.039,162.97c0.004,3.627,0.429,7.283,0.991,10.874
		c1.856,11.855,7.19,16.882,19.236,18.391c5.139,0.643,5.139,0.643,4.937,4.492c-5.91,0-11.85,0-17.79,0
		c-18.882,0-37.763,0.041-56.643-0.085c-1.438-0.008-2.867-1.205-4.301-1.848c1.258-0.691,2.442-1.649,3.787-2.01
		c2.066-0.554,4.272-0.554,6.363-1.027c8.724-1.981,13.868-7.352,15.251-16.211c0.635-4.076,1.043-8.233,1.049-12.354
		c0.069-53.994,0.05-107.986,0.042-161.978c0-1.262-0.124-2.523-0.23-4.58c-5.847,3.931-11.159,7.477-16.442,11.06
		c-12.74,8.637-25.384,17.418-38.262,25.843c-3.075,2.012-4.011,4.165-4.005,7.653c0.091,56.147,0.124,112.292-0.028,168.435
		c-0.016,5.718-1.28,11.432-2.03,17.138c-0.366,2.774-1.185,5.527-1.197,8.294c-0.008,1.342,1.367,2.688,2.117,4.035
		c0.869-1.124,2.167-2.123,2.531-3.393c1.134-3.967,1.642-8.12,2.899-12.042c1.905-5.937,5.702-10.389,11.654-12.742
		c4.07-1.605,7.926-0.444,9.058,3.409c1.118,3.805,0.906,8.347-0.024,12.257c-0.42,1.767-4.547,4.33-6.011,3.801
		c-2.649-0.95-4.56-3.951-7.481-6.777c-1.733,4.42-3.694,9.422-5.655,14.42c0.33,0.433,0.657,0.865,0.987,1.298
		c3.035-0.663,6.072-1.322,9.027-1.969c0.136,4.743-1.647,6.364-9.145,7.893c0.527,8.562,5.865,13.692,15.077,14.489
		c14.537,1.254,19.705-3.57,24.228-22.625c15.615,9.22,19.711,37.332,7.247,50.207c-5.548,5.73-12.404,7.352-20.059,5.589
		c-19.402-4.477-31.822-19.79-32.768-40.341c-0.113-2.45-0.016-4.913-0.016-7.687c-5.423-0.404-3.963,3.453-3.714,5.512
		c1.318,10.962,4.982,21.188,10.306,30.861c4.565,8.294,7.471,17.028,5.36,26.645c-0.742,3.368-1.733,6.772-3.203,9.878
		c-5.501,11.622-11.25,23.127-17.313,35.513c-6.26-14.246-12.449-27.716-18.102-41.404c-4.309-10.429-2.048-20.635,3.253-30.057
		c5.5-9.773,9.818-19.883,11.058-31.072c0.269-2.435,2.131-6.979-3.445-5.811c-1.011,6.777-1.314,13.466-3.079,19.745
		c-4.592,16.32-16.341,25.294-32.437,28.517c-8.732,1.751-15.926-1.812-20.863-9.369c-9.165-14.032-3.997-38.197,9.964-46.798
		c3.914,18.491,9.369,23.744,23.625,22.741c9.616-0.679,15.142-5.774,15.695-14.683c-4.339-0.873-8.815-1.799-9.128-8.039
		c2.972,0.846,5.704,1.622,8.435,2.402c0.483-0.287,0.964-0.57,1.448-0.854c-1.826-5.135-3.649-10.274-5.473-15.414
		c-0.516,0.076-1.031,0.153-1.547,0.23c-0.222,0.529-0.33,1.16-0.689,1.564c-1.743,1.945-4.197,5.718-5.214,5.37
		c-2.758-0.942-5.971-3.207-7.022-5.763c-1.11-2.696-0.619-6.579,0.406-9.511c1.614-4.617,5.623-5.928,10.12-3.954
		c5.989,2.632,9.697,7.399,11.466,13.574c1.043,3.644,1.735,7.408,2.303,11.165c0.511,3.393,2.232,4.003,5.91,2.709
		c-0.433-3.825-0.857-7.687-1.308-11.549c-0.647-5.548-1.87-11.092-1.884-16.644c-0.142-56.144-0.093-112.291-0.069-168.436
		c0.002-2.867-0.081-5.208-3.061-7.135c-18.625-12.03-37.087-24.315-55.611-36.503c-0.78-0.516-1.634-0.922-3.219-1.808
		c0,2.487,0,4.246,0,6.005c0,50.846-0.042,101.691,0.063,152.537c0.01,5.431,0.471,10.935,1.439,16.276
		c2.147,11.864,9.269,19.029,21.313,21.12c4.182,0.724,4.163,0.829,4.115,4.112c-0.95,0.094-1.921,0.271-2.891,0.271
		c-26.169,0.016-52.336,0.036-78.505-0.057c-1.344-0.008-2.685-1.052-4.027-1.613c0.952-0.838,1.781-2.164,2.877-2.442
		c17.778-4.565,24.046-12.091,25.142-30.543c0.166-2.806,0.147-5.629,0.147-8.443c0.008-51.509,0.01-103.016-0.002-154.525
		c0-2.317,0.048-4.658-0.255-6.943c-1.68-12.655-9.199-19.386-21.992-19.804c-1.478-0.048-2.958-0.008-4.594-0.008
		c-1.09-2.867-0.928-4.525,2.646-4.508c20.207,0.095,40.411,0.044,60.616,0.259c1.941,0.02,4.088,1.193,5.762,2.367
		c18.148,12.748,36.274,25.526,54.259,38.5c3.053,2.204,5.172,2.167,8.209,0.069c19.056-13.174,38.211-26.208,57.427-39.149
		c1.795-1.209,4.224-2.05,6.369-2.074c15.4-0.174,30.805-0.063,46.209-0.122C504.975,85.103,507.146,85.362,505.848,88.951z"/>
	<path fill-rule="evenodd" clip-rule="evenodd" fill="#FFFFFF" d="M256.96,304.785c0,3.117,0,6.045,0,9.272
		c-32.756,0-65.274,0-98.113,0c0-3.163,0-6.208,0-9.208c4.78-0.813,9.402-1.273,13.852-2.414c9.86-2.527,15.111-9.046,15.655-19.184
		c0.693-12.859,1.223-25.73,1.842-38.976c-37.281,0-73.954,0-111.043,0c0,5.49-0.101,11.038,0.026,16.577
		c0.154,6.62,0.698,13.235,0.724,19.855c0.046,12.131,4.937,18.763,16.749,21.799c3.991,1.027,8.102,1.598,12.621,2.463
		c0,2.71,0,5.738,0,9.087c-32.49,0-65.031,0-97.952,0c0-3.183,0-6.377,0-9.75c4.319-0.59,8.605-0.93,12.787-1.787
		c11.674-2.398,17.014-9.07,16.769-20.955c-0.746-36.496,0.649-72.833,7.999-108.726c8.638-42.194,23.64-81.444,54.884-112.462
		c8.848-8.785,19.551-15.694,29.349-23.533c2.337-1.87,4.11-1.472,6.513,0.172c30.785,21.068,52.01,49.538,65.462,84.073
		c11.512,29.56,17.35,60.417,19.632,91.874c1.688,23.258,1.927,46.624,2.671,69.944c0.319,10.021,5.562,16.834,15.892,19.459
		C247.583,303.459,252.045,303.939,256.96,304.785z M136.667,46.655c-0.825,0.5-1.276,0.694-1.627,1.001
		c-0.993,0.874-1.97,1.769-2.906,2.701c-15.908,15.809-26.705,34.802-34.558,55.609c-10.671,28.274-15.241,57.793-17.625,87.727
		c-0.627,7.859-0.772,15.759-1.152,23.933c37.23,0,73.877,0,111.104,0c-0.308-6.506-0.522-12.736-0.91-18.955
		c-2.054-32.983-6.89-65.438-18.644-96.55C162.62,81.66,152.106,62.889,136.667,46.655z M189.636,231.27c0-2.697,0-4.748,0-6.903
		c-37.046,0-73.703,0-110.542,0c0,2.442,0,4.614,0,6.903C116.146,231.27,152.808,231.27,189.636,231.27z"/>
	<path fill-rule="evenodd" clip-rule="evenodd" fill="#FFFFFF" d="M608.045,91.102c21.893,14.208,38.177,33.126,49.463,56.455
		c13.251,27.388,18.88,56.713,21.214,86.708c1.411,18.13,1.549,36.363,2.11,54.552c0.243,7.792,3.109,12.596,10.404,15.168
		c4.012,1.411,8.322,1.969,12.961,3.017c0,1.965,0,4.322,0,7.028c-25.908,0-51.805,0-78.032,0c0-2.395,0-4.792,0-6.996
		c4.371-0.942,8.629-1.541,12.681-2.807c5.2-1.629,9.482-5.176,10.069-10.631c1.241-11.609,1.598-23.316,2.337-35.338
		c-30.134,0-59.35,0-89.221,0c0,2.777-0.085,5.516,0.017,8.245c0.259,6.947,0.776,13.886,0.873,20.833
		c0.138,9.839,3.373,14.529,12.88,17.4c3.295,0.995,6.757,1.439,10.533,2.212c0,2.103,0,4.48,0,7.142c-25.993,0-51.901,0-78.133,0
		c0-2.491,0-4.881,0-7.595c2.774-0.376,5.528-0.679,8.262-1.132c10.89-1.808,15.516-7.315,15.289-18.294
		c-0.591-28.354,0.525-56.588,6.086-84.494c6.054-30.389,16.401-58.919,36.535-83.111C583.871,108.053,595,98.549,608.045,91.102z
		 M650.258,236.913c0.255-0.771,0.452-1.078,0.44-1.377c-1.031-33.231-5.006-65.943-17.942-96.944
		c-5.888-14.111-13.684-27.081-25.083-38.719c-37.731,38.409-43.017,87.029-45.855,137.04
		C591.684,236.913,620.88,236.913,650.258,236.913z M562.007,247.702c29.871,0,59.225,0,88.971,0
		c-0.122-1.913-0.219-3.454-0.319-5.071c-29.799,0-59.136,0-88.651,0C562.007,244.444,562.007,245.892,562.007,247.702z"/>
	<path fill-rule="evenodd" clip-rule="evenodd" fill="#FFFFFF" d="M872.061,160.145c-4.76,1.581-6.414-0.155-8.035-3.91
		c-4.182-9.679-8.225-19.578-13.806-28.456c-20.776-33.033-67.413-29.6-88.46-2.675c-10.519,13.449-15.415,29.123-18.609,45.474
		c-5.682,29.099-5.464,58.005,4.836,86.135c2.871,7.837,6.951,15.443,11.654,22.346c15.055,22.104,40.546,30.166,68.084,22.034
		c4.885-1.439,9.693-3.344,14.258-5.601c4.089-2.025,6.074-5.475,6.001-10.485c-0.327-21.521-0.278-43.049-0.437-64.574
		c-0.068-9.925-6.118-16.43-16.082-17.435c-2.301-0.232-4.626-0.243-7.578-0.386c-0.097-1.803-0.193-3.662-0.314-5.916
		c23.457,0,46.511,0,69.79,0c0,1.976,0,3.732,0,5.481c-14.068,0.754-18.893,8.937-18.852,23.917
		c0.061,21.529,0.19,43.058,0.004,64.587c-0.017,2.228-1.375,5.394-3.134,6.522c-30.154,19.28-62.759,27.416-97.422,15.859
		c-30.433-10.149-50.453-31.841-59.568-63.02c-8.653-29.58-10.65-59.232-0.614-88.889c8.145-24.054,21.399-44.918,43.681-57.773
		c24.728-14.264,51.271-16.535,78.359-5.98c3.691,1.439,7.416,2.887,11.245,3.868c7.384,1.893,11.97-0.514,15.774-6.915
		c1.02-1.714,3.732-2.424,6.879-4.327C870.535,114.552,871.296,137.286,872.061,160.145z"/>
	<path fill-rule="evenodd" clip-rule="evenodd" fill="#FFFFFF" d="M705.027,376.863c6.668-1.994,9.037-6.256,8.096-12.774
		c-0.316-2.18,0.314-4.501,0.513-6.757c0.765,0.04,1.529,0.081,2.289,0.125c0.17,3.789,0.34,7.578,0.563,12.572
		c5.229-3.324,10.012-6.037,14.411-9.272c3.551-2.616,6.596-3.17,10.062-0.072c1.464,1.31,3.255,2.264,4.953,3.291
		c14.258,8.621,21.638,20.595,20.304,37.894c-0.894,11.521-0.425,23.179-0.049,34.756c0.154,4.829-1.322,8.016-5.119,10.891
		c-5.136,3.89-9.729,8.491-14.836,12.43c-1.307,1.007-3.798,1.237-5.504,0.825c-7.792-1.889-15.504-4.129-24.149-6.49
		c0,10.154,0,18.823,0,27.894c-9.058,0-17.554,0-26.571,0c0-9.001,0-18.026,0-27.501c-12.499-1.832-22.063,4.063-32.956,9.337
		c0.412-1.387,0.461-3.058,1.294-4.112c7.424-9.414,16.923-15.589,28.682-18.379c1.193-0.283,2.593-2.746,2.653-4.246
		c0.485-12.22-8.88-23.838-22.387-28.379c-1.666-0.563-3.097-1.832-4.638-2.77c1.262-1.384,2.313-3.082,3.825-4.089
		c6.611-4.399,13.3-8.693,20.085-12.811c2.451-1.483,3.632-3.183,3.062-6.037c-0.223-1.132-0.36-2.317-0.287-3.461
		c0.801-12.406-10.954-17.761-21.432-13.018c-1.392,0.627-3.134,0.478-4.711,0.691c0.865-1.427,1.436-3.206,2.645-4.221
		c7.63-6.394,20.809-7.591,29.539-2.876C700.543,363.099,702.37,366.204,705.027,376.863z M716.236,385.703
		c0,2.316,0.291,4.683-0.057,6.947c-0.736,4.738,1.759,6.829,5.726,8.395c7.829,3.093,15.528,2.584,23.284-0.117
		c7.08-2.467,8.317-5.27,5.281-12.232c-0.393-0.906-0.882-1.783-1.411-2.616c-5.415-8.484-13.681-13.243-22.568-17.138
		c-0.736-0.323-1.978-0.189-2.681,0.234c-4.355,2.612-9.329,4.845-7.631,11.573C716.572,382.302,716.236,384.045,716.236,385.703z
		 M712.561,479.4c0-34.417,0-68.299,0-102.229c-6.773,2.09-8.379,6.372-8.294,12.871c0.372,27.78,0.158,55.564,0.158,83.345
		c0,1.941,0,3.882,0,6.014C707.494,479.4,709.932,479.4,712.561,479.4z M716.265,440.593c12.576,3.194,23.963,6.081,35.451,8.997
		c0-6.482,0.17-13.43-0.129-20.36c-0.069-1.553-1.424-3.655-2.795-4.444c-10.178-5.855-20.364-4.1-30.364,0.651
		c-0.966,0.461-2.014,1.904-2.066,2.943C716.131,432.792,716.265,437.22,716.265,440.593z M751.578,402.233
		c-11.67,4.695-23.17,6.272-34.954,0.291c0,6.866,0,12.977,0,19.762c11.8-5.172,23.264-6.264,34.954-0.477
		C751.578,415.178,751.578,409.245,751.578,402.233z M675.172,401.514c5.075,3.268,9.548,6.146,14.189,9.135
		c0-6.037,0-11.961,0-18.609C684.263,395.444,679.782,398.433,675.172,401.514z"/>
	<path fill-rule="evenodd" clip-rule="evenodd" fill="#FFFFFF" d="M886.66,362.553c3.712,1.997,7.42,3.995,11.573,6.231
		c4.787-3.571,9.883-8.169,17.63-7.963c-0.311,1.027-0.307,1.896-0.687,2.123c-6.519,3.898-8.116,9.851-7.797,16.996
		c0.332,7.425,0.073,14.873,0.073,23.511c6.4-4.853,12.082-9.14,17.739-13.454c4.994-3.813,6.806-4.031,10.429,1.104
		c2.451,3.478,4.578,7.986,4.748,12.119c0.582,14.205,0.311,28.451,0.137,42.677c-0.016,1.339-1.298,3.19-2.519,3.895
		c-6.685,3.865-13.539,7.448-19.746,10.809c-9.737-4.186-19.64-8.443-29.688-12.766c4.783-4.869,4.343-11.849,4.363-18.687
		c0.048-14.562-0.009-29.123,0.028-43.685c0.02-8.002,0.023-15.964-7.437-21.598C885.892,363.43,886.275,362.989,886.66,362.553z
		 M925.674,449.998c0-4.808,0-8.605,0-12.398c-0.008-10.416,0.275-20.845-0.219-31.241c-0.129-2.714-2.305-5.665-4.326-7.74
		c-0.566-0.582-4.044,1.42-6.009,2.54c-1.707,0.975-3.394,2.18-4.675,3.644c-1.303,1.487-2.936,3.396-2.988,5.159
		c-0.283,9.911-0.215,19.839-0.045,29.754c0.021,1.347,0.963,3.393,2.034,3.874C914.518,445.873,919.782,447.726,925.674,449.998z"
		/>
	<path fill-rule="evenodd" clip-rule="evenodd" fill="#FFFFFF" d="M835.956,396.977c10.877-11.67,14.181-11.646,24.622,0.279
		c-6.519,2.596-5.326,8.257-5.342,13.47c-0.028,9.766-0.061,19.531,0.012,29.297c0.013,1.953,0.312,3.946,0.772,5.851
		c0.761,3.106,2.095,5.366,5.92,3.195c0.615-0.348,1.82,0.339,3.882,0.796c-5.402,4.121-9.745,7.639-14.354,10.765
		c-0.89,0.603-3.567,0.202-4.129-0.623c-2.968-4.33-5.523-8.94-8.609-14.108c-6.11,4.756-13.073,10.179-20.408,15.888
		c-6.709-3.954-10.995-9.494-11.008-17.788c-0.02-12.083,0-24.165-0.012-36.248c-0.008-7.707-0.631-8.192-7.643-6.105
		c-0.162,0.048-0.474-0.4-1.411-1.242c5.172-4.702,10.287-9.349,15.597-14.173c4.351,3.481,8.459,6.77,13.215,10.574
		c-6.959,3.368-5.528,9.35-5.54,14.856c-0.024,9.106-0.049,18.209,0.036,27.312c0.017,1.953,0.098,4.056,0.813,5.823
		c2.139,5.289,4.383,5.244,9.248,2.645c7.828-4.182,10.121-10.138,9.139-18.581c-0.704-6.045-0.215-12.236-0.113-18.358
		C840.723,405.355,841.35,400.11,835.956,396.977z"/>
	<path fill-rule="evenodd" clip-rule="evenodd" fill="#FFFFFF" d="M945.073,32.692c5.957,5.999,12.213,12.301,18.258,18.389
		c-6.134,6.087-12.418,12.323-18.391,18.249c-5.965-5.957-12.225-12.212-18.428-18.407
		C932.559,44.985,938.887,38.772,945.073,32.692z"/>
</g>
</svg>
