<?xml version="1.0" encoding="utf-8"?>
<!-- Generator: Adobe Illustrator 16.0.3, SVG Export Plug-In . SVG Version: 6.00 Build 0)  -->
<!DOCTYPE svg PUBLIC "-//W3C//DTD SVG 1.1//EN" "http://www.w3.org/Graphics/SVG/1.1/DTD/svg11.dtd">
<svg version="1.1" id="Capa_1" xmlns="http://www.w3.org/2000/svg" xmlns:xlink="http://www.w3.org/1999/xlink" x="0px" y="0px"
	 width="171px" height="314px" viewBox="0 0 171 314" enable-background="new 0 0 171 314" xml:space="preserve">
<g>
	<path fill-rule="evenodd" clip-rule="evenodd" fill="#FFFFFF" d="M170.046,2.645c-0.146,0.091-0.241,0.201-0.34,0.205
		c-14.154,0.6-17.068,8.941-17.202,19.995c-0.185,15.222-0.055,30.448-0.056,45.672c-0.001,20.947-0.025,41.895,0.027,62.841
		c0.009,3.31,0.233,6.635,0.598,9.926c0.994,8.96,4.717,12.66,13.682,13.836c3.231,0.423,3.231,0.423,3.212,3.073
		c-1.462,0-2.931,0-4.398,0c-15.682,0-31.364,0.023-47.045-0.055c-1.014-0.005-2.024-0.792-3.036-1.215
		c0.958-0.515,1.866-1.333,2.882-1.499c11.108-1.824,13.886-4.655,15.202-15.887c0.213-1.812,0.217-3.656,0.217-5.484
		c0.013-36.858,0.01-73.716,0.01-110.575c0-0.997,0-1.993,0-3.668c-5.115,3.434-9.729,6.515-14.326,9.623
		c-8.053,5.446-16.145,10.838-24.084,16.446c-1.148,0.811-2.186,2.689-2.188,4.077c-0.075,28.957,0.047,57.915,0.049,86.872
		c0.001,27.351-0.032,54.703-0.229,82.053c-0.022,3.132-1.238,6.248-1.801,9.39c-0.28,1.563-0.488,3.173-0.416,4.747
		c0.028,0.632,0.899,1.226,1.388,1.838c0.594-0.521,1.549-0.942,1.721-1.577c0.743-2.753,1.126-5.604,1.886-8.352
		c1.223-4.422,3.799-7.979,8.249-9.373c1.604-0.502,4.19,0.03,5.492,1.104c2.683,2.212,2.595,5.68,1.353,8.561
		c-0.694,1.609-3.06,3.758-4.341,3.557c-1.861-0.293-3.423-2.488-5.637-4.3c-1.097,2.743-2.461,6.157-3.825,9.57
		c0.226,0.315,0.45,0.629,0.675,0.943c2.088-0.432,4.176-0.864,6.213-1.286c0.234,3.15-1.155,4.437-6.223,5.365
		c0.143,5.781,3.927,9.482,10.281,10.054c10.144,0.912,14.054-2.725,16.972-16.607c2.368,3.015,4.65,5.338,6.246,8.063
		c4.218,7.206,5.108,14.843,1.836,22.702c-2.985,7.17-9.794,10.541-17.347,8.701c-13.295-3.237-21.71-13.647-22.385-27.735
		c-0.081-1.696-0.011-3.4-0.011-5.057c-2.564-1.027-2.943,0.414-2.636,2.039c0.827,4.362,1.55,8.783,2.881,13.002
		c1.125,3.564,2.88,6.965,4.643,10.286c4.218,7.948,5.303,16.009,1.313,24.345c-3.888,8.121-7.852,16.207-12.169,25.107
		c-4.504-10.535-8.979-20.355-12.899-30.393c-2.598-6.65-0.651-13.184,2.659-19.117c3.773-6.768,6.809-13.733,7.655-21.474
		c0.184-1.678,1.55-4.823-2.375-4.099c-0.688,4.646-0.897,9.264-2.106,13.603c-3.145,11.292-11.254,17.506-22.371,19.764
		c-6.026,1.224-11.014-1.197-14.445-6.417c-6.353-9.664-2.902-26.067,7.045-32.574c0.48,5.262,1.106,10.749,6,13.475
		c2.99,1.665,6.916,2.287,10.414,2.264c6.42-0.043,10.084-3.822,10.61-9.942c-2.959-0.672-6.129-1.235-6.363-5.589
		c2.028,0.574,3.908,1.106,5.788,1.638c0.342-0.188,0.685-0.378,1.026-0.567c-1.241-3.552-2.482-7.104-3.724-10.657
		c-0.332,0.048-0.663,0.096-0.994,0.143c-0.186,0.349-0.426,0.68-0.55,1.049c-0.674,2.002-1.525,4.533-3.954,3.803
		c-1.865-0.561-3.774-2.488-4.667-4.3c-0.751-1.522-0.467-3.876,0.068-5.646c1.142-3.774,4.313-4.921,7.905-3.13
		c3.799,1.895,6.191,5.048,7.339,9.064c0.719,2.52,1.207,5.119,1.598,7.714c0.346,2.292,1.418,2.926,3.93,1.92
		c-0.106-1.883-0.16-3.895-0.347-5.894c-0.61-6.568-1.714-13.124-1.821-19.698c-0.289-17.386-0.206-34.779-0.18-52.168
		c0.05-35.021,0.125-70.043,0.311-105.064c0.015-2.843-0.794-4.514-3.227-6.08C67.299,37.61,55.029,29.417,42.709,21.3
		c-0.645-0.425-1.31-0.816-2.605-1.622c0,1.808,0,3,0,4.191c0,35.256-0.05,70.511,0.064,105.767
		c0.014,4.306,0.518,8.699,1.484,12.893c1.62,7.031,6.386,11.129,13.455,12.538c0.897,0.179,1.839,0.246,2.674,0.58
		c0.495,0.198,0.82,0.818,1.222,1.248c-0.501,0.456-0.939,1.05-1.525,1.324c-0.472,0.22-1.125,0.055-1.697,0.055
		c-17.628,0.001-35.256,0.024-52.883-0.06c-1.082-0.006-2.161-0.882-3.241-1.354c0.971-0.563,1.881-1.436,2.922-1.641
		c10.592-2.081,15.511-8.13,16.437-20.473c0.136-1.823,0.126-3.66,0.127-5.491c0.008-35.942,0.013-71.885-0.01-107.828
		c-0.001-1.935-0.064-3.908-0.433-5.798C17.15,7.677,12.292,3.571,4.196,3.216c-1.141-0.05-2.285-0.007-3.555-0.007
		c-0.791-1.877-0.838-3.128,1.697-3.12c14.079,0.046,28.159,0.028,42.236,0.168c1.231,0.013,2.583,0.828,3.658,1.584
		c12.535,8.82,25.064,17.649,37.496,26.615c2.079,1.5,3.527,1.622,5.673,0.137c13.167-9.11,26.407-18.115,39.696-27.046
		c1.325-0.89,3.133-1.467,4.725-1.487c10.529-0.129,21.062-0.056,31.592-0.076C169.275-0.019,171.068-0.08,170.046,2.645z"/>
</g>
</svg>
